<svg xmlns="http://www.w3.org/2000/svg" width="300.90169943749476" height="194.10565162951536" viewBox="-150.45084971874738 -97.05282581475768 300.90169943749476 194.10565162951536" style=""><g><defs><filter id="shadow-8847fa65bdedc1e6"><feGaussianBlur in="SourceAlpha" stdDeviation="4"></feGaussianBlur><feOffset dx="8" dy="8" result="offsetblur"></feOffset><feFlood flood-color="oklch(0% 0 0 / 0.5)" flood-opacity="0.5"></feFlood><feComposite in2="offsetblur" operator="in"></feComposite><feMerge><feMergeNode></feMergeNode><feMergeNode in="SourceGraphic"></feMergeNode></feMerge></filter></defs><g><g><text style="font-family: sans-serif; font-style: normal; font-weight: normal; font-size: 12pt; stroke-width: 1px; stroke: oklch(0% 0 0 / 1); stroke-linecap: butt; stroke-linejoin: miter;  fill: oklch(0% 0 0 / 1);" transform="matrix(1,0,0,1,-70,-67.55282581475768)" x="-38.53333282470703" y="2" dominant-baseline="middle">original</text><path transform="matrix(1,0,0,-1,-70,9.5)" style="stroke: none; fill: oklch(88.67710688898366% 0.18218603071516098 95.33048888754664 / 1);" d="M 0,0 M 50,0 L 20.225424859373685,14.694631307311829 L 15.450849718747373,47.552825814757675 L -7.725424859373684,23.77641290737884 L -40.450849718747364,29.38926261462366 L -25,3.061616997868383e-15 L -40.45084971874737,-29.38926261462365 L -7.725424859373689,-23.776412907378838 L 15.450849718747362,-47.55282581475768 L 20.225424859373682,-14.694631307311834 L 50,-1.2246467991473532e-14 Z"></path></g><g><text style="font-family: sans-serif; font-style: normal; font-weight: normal; font-size: 12pt; stroke-width: 1px; stroke: oklch(0% 0 0 / 1); stroke-linecap: butt; stroke-linejoin: miter;  fill: oklch(0% 0 0 / 1);" transform="matrix(1,0,0,1,60.45084971874738,-67.55282581475768)" x="-52.983333587646484" y="2" dominant-baseline="middle">drop shadow</text><g filter="url(#shadow-8847fa65bdedc1e6)"><path transform="matrix(1,0,0,-1,60.45084971874738,9.5)" style="stroke: none; fill: oklch(88.67710688898366% 0.18218603071516098 95.33048888754664 / 1);" d="M 0,0 M 50,0 L 20.225424859373685,14.694631307311829 L 15.450849718747373,47.552825814757675 L -7.725424859373684,23.77641290737884 L -40.450849718747364,29.38926261462366 L -25,3.061616997868383e-15 L -40.45084971874737,-29.38926261462365 L -7.725424859373689,-23.776412907378838 L 15.450849718747362,-47.55282581475768 L 20.225424859373682,-14.694631307311834 L 50,-1.2246467991473532e-14 Z"></path></g></g></g></g></svg>
